<svg id="Layer_1" enable-background="new 0 0 512 512" height="512" viewBox="0 0 512 512" width="512" xmlns="http://www.w3.org/2000/svg"><path d="m502.529 133.606-109.307-128.331c-2.85-3.347-7.025-5.275-11.422-5.275s-8.572 1.928-11.422 5.276l-109.307 128.331c-3.794 4.454-4.653 10.708-2.2 16.02 2.454 5.312 7.771 8.714 13.622 8.714h29.981v90.987h-42.914v-45.658c0-8.287-6.718-15.005-15.005-15.005h-94.357c-8.287 0-15.005 6.718-15.005 15.005v45.658h-114.3c-8.287 0-15.005 6.718-15.005 15.005v232.463c0 8.287 6.718 15.005 15.005 15.005l421.106.2c8.273-.019 14.97-6.731 14.97-15.005v-338.655h34.138c5.851 0 11.168-3.401 13.622-8.714 2.453-5.312 1.595-11.566-2.2-16.021zm-337.326 85.068h64.348v30.654h-64.348zm191.88 60.663v68.279h-48.717v-21.56c0-8.287-6.718-15.005-15.005-15.005s-15.005 6.718-15.005 15.005v21.56h-164.128v-21.56c0-8.287-6.718-15.005-15.005-15.005s-15.005 6.718-15.005 15.005v21.56h-48.32v-68.279zm-321.185 98.288h48.322v14.664c0 8.287 6.718 15.005 15.005 15.005s15.005-6.718 15.005-15.005v-14.664h67.059v14.664c0 8.287 6.718 15.005 15.005 15.005s15.005-6.718 15.005-15.005v-14.664h67.06v14.664c0 8.287 6.718 15.005 15.005 15.005s15.005-6.718 15.005-15.005v-14.664h48.717v104.165h-321.188zm406.067-249.294c-8.287 0-15.005 6.718-15.005 15.005v338.689l-39.868.09v-217.783c0-8.287-6.718-15.005-15.005-15.005h-39.604v-105.991c0-8.287-6.718-15.005-15.005-15.005h-12.496l76.818-90.186 76.817 90.187h-16.652z"/></svg>